<?xml version="1.0" encoding="UTF-8" standalone="no"?>
<!-- Created with Inkscape (http://www.inkscape.org/) -->

<svg
   xmlns:dc="http://purl.org/dc/elements/1.1/"
   xmlns:cc="http://creativecommons.org/ns#"
   xmlns:rdf="http://www.w3.org/1999/02/22-rdf-syntax-ns#"
   xmlns:svg="http://www.w3.org/2000/svg"
   xmlns="http://www.w3.org/2000/svg"
   xmlns:sodipodi="http://sodipodi.sourceforge.net/DTD/sodipodi-0.dtd"
   xmlns:inkscape="http://www.inkscape.org/namespaces/inkscape"
   id="svg9003"
   version="1.1"
   inkscape:version="0.91 r13725"
   width="742.5"
   height="52.497936"
   viewBox="0 0 742.5 52.497937"
   sodipodi:docname="footerscroll.svg">
  <metadata
     id="metadata9009">
    <rdf:RDF>
      <cc:Work
         rdf:about="">
        <dc:format>image/svg+xml</dc:format>
        <dc:type
           rdf:resource="http://purl.org/dc/dcmitype/StillImage" />
        <dc:title></dc:title>
      </cc:Work>
    </rdf:RDF>
  </metadata>
  <defs
     id="defs9007" />
  <sodipodi:namedview
     pagecolor="#ffffff"
     bordercolor="#666666"
     borderopacity="1"
     objecttolerance="10"
     gridtolerance="10"
     guidetolerance="10"
     inkscape:pageopacity="0"
     inkscape:pageshadow="2"
     inkscape:window-width="1250"
     inkscape:window-height="786"
     id="namedview9005"
     showgrid="false"
     fit-margin-top="0"
     fit-margin-left="0"
     fit-margin-right="0"
     fit-margin-bottom="0"
     inkscape:zoom="2.3617843"
     inkscape:cx="583.86608"
     inkscape:cy="-3.6412426"
     inkscape:window-x="0"
     inkscape:window-y="0"
     inkscape:window-maximized="0"
     inkscape:current-layer="svg9003" />
  <path
     style="fill:#deca82;fill-opacity:1"
     d="m 716.15703,48.179688 c -2.40239,-2.367577 -8.17364,-8.037652 -12.825,-12.600168 -4.65137,-4.562516 -8.9196,-8.815016 -9.48497,-9.45 -0.56535,-0.634985 -1.58839,-1.933205 -2.27341,-2.884932 -0.68502,-0.951728 -1.55424,-2.015024 -1.93163,-2.362881 l -0.68614,-0.632468 -322.76544,0.04096 C 60.398373,20.329009 43.334287,20.344889 41.7,20.592132 c -4.120092,0.623308 -6.896573,1.248609 -9.86014,2.220636 -4.419299,1.449493 -7.693502,3.243538 -10.609199,5.813131 l -1.19434,1.052568 -0.242548,-0.776733 C 19.081184,26.619727 17.272842,22.985586 15.542402,20.357938 14.434685,18.675888 8.5842288,12.295691 7.0937778,11.144317 5.3643608,9.808342 3.357209,8.527622 1.5788057,7.625333 0.0675966,6.858608 0.0013293,6.804686 6.789e-4,6.341213 5e-5,5.893055 0.0263929,5.867461 0.3583713,5.993678 0.8582919,6.183748 2.9148272,7.241939 3.8790801,7.80526 4.3213242,8.063621 4.6292693,8.185006 4.5634025,8.075005 4.4975355,7.965002 3.4438245,6.785938 2.2218222,5.454862 L 0,3.034724 0,1.517362 C 0,0.682812 0.033782,0 0.075071,0 0.11636,0 0.7815517,0.437174 1.5532749,0.971498 8.9601699,6.09986 19.247601,10.0871 31.5,12.578359 c 6.986554,1.420564 12.826762,2.17491 23.625,3.051508 1.754106,0.142398 71.12971,0.201227 314.775,0.266924 l 312.525,0.08427 1.275,0.32157 c 2.49111,0.628287 4.59162,1.524893 5.8785,2.50925 l 0.7035,0.538119 2.109,0 c 1.80774,0 2.109,0.03332 2.109,0.233231 0,0.282333 0.92404,1.66305 1.97326,2.948446 4.52363,5.541935 10.57744,9.013869 17.90174,10.266879 2.05317,0.351248 6.76614,0.349743 8.85,-0.0028 6.54979,-1.108165 12.04387,-3.990949 16.50444,-8.659996 0.66244,-0.693404 1.55682,-1.726425 1.9875,-2.295603 l 0.78306,-1.03487 0,0.793172 c 0,0.738619 -0.0564,0.862117 -0.82012,1.795608 -1.00247,1.225315 -3.28708,3.444699 -4.50488,4.376271 -11.14257,8.523639 -26.38486,8.353628 -37.22327,-0.415187 -2.15503,-1.743534 -4.49464,-4.330122 -5.91621,-6.540768 l -0.36052,-0.560643 -1.17501,-0.0019 -1.17501,-0.0019 0.3147,0.4125 c 0.17308,0.226875 0.70129,0.9525 1.17379,1.6125 1.88745,2.636448 3.99071,4.882595 6.26153,6.686921 8.34213,6.628425 19.5066,8.624583 29.625,5.296824 4.68618,-1.541198 8.63443,-3.934862 12.1875,-7.388757 l 1.6125,-1.567496 0,1.124978 0,1.124979 -0.9375,0.893124 c -4.96824,4.733077 -11.81954,7.903178 -18.92958,8.758725 -1.69391,0.203828 -6.08003,0.203583 -7.65792,-4.5e-4 -3.57129,-0.461739 -6.88607,-1.369173 -9.65862,-2.644089 -0.60975,-0.28038 -1.13952,-0.509783 -1.17729,-0.509783 -0.0378,0 2.75613,2.781122 6.20863,6.180269 3.45251,3.399147 7.66103,7.549952 9.35228,9.22401 l 3.075,3.04374 -1.125,-0.0068 -1.125,-0.0068 -4.36797,-4.304686 z M 21.570502,27.092527 C 26.218979,23.355808 32.255883,21.076509 41.175,19.690636 42.726429,19.449573 62.077825,19.4295 365.1,19.354629 l 322.275,-0.07963 -0.75,-0.346683 c -0.96246,-0.444886 -2.25603,-0.86246 -3.675,-1.18631 C 681.89082,17.500271 663.51061,17.479649 368.775,17.389504 196.5975,17.336844 55.455,17.251427 55.125,17.199692 54.795,17.147952 53.14125,17.000639 51.45,16.87232 37.774615,15.834745 25.143585,13.313809 15.375,9.672371 9.9887089,7.664522 6.0762066,5.730089 1.125,2.626834 0.6810608,2.348588 0.6822366,2.352737 1.212305,2.934895 c 4.9450098,5.430955 7.6895749,8.36566 9.670171,10.340106 1.324112,1.32 2.933243,3.094597 3.575846,3.943549 2.294605,3.031436 4.30792,6.487721 5.501183,9.443951 0.27473,0.680625 0.523581,1.2375 0.553004,1.2375 0.02942,0 0.505519,-0.363363 1.057993,-0.807474 z"
     id="path9553"
     inkscape:connector-curvature="0" />
</svg>
